<svg xmlns="http://www.w3.org/2000/svg" viewBox="0 0 960 260" role="img" aria-labelledby="title desc">
  <title id="title">Noggin logo</title>
  <desc id="desc">A compact brain-shaped node network mark with the Noggin wordmark.</desc>
  <defs>
    <linearGradient id="mark" x1="48" x2="228" y1="42" y2="222" gradientUnits="userSpaceOnUse">
      <stop stop-color="#0E6F6B"/>
      <stop offset="0.58" stop-color="#1D3557"/>
      <stop offset="1" stop-color="#E2A33A"/>
    </linearGradient>
    <filter id="softShadow" x="-20%" y="-20%" width="140%" height="140%">
      <feDropShadow dx="0" dy="8" stdDeviation="10" flood-color="#111827" flood-opacity="0.14"/>
    </filter>
  </defs>
  <rect width="960" height="260" rx="32" fill="#F7F8FA"/>
  <g filter="url(#softShadow)">
    <path fill="url(#mark)" d="M138 37c-40 0-73 31-77 70-23 8-39 30-39 56 0 33 27 60 60 60h93c43 0 78-35 78-78 0-35-23-65-55-75-13-20-35-33-60-33Z"/>
    <path fill="#FFFFFF" fill-opacity="0.92" d="M91 102c0-18 15-33 33-33 15 0 27 9 31 22 6-4 13-7 21-7 21 0 38 17 38 38s-17 38-38 38h-10v25h-23v-25h-19c-18 0-33-15-33-33v-25Zm33-10c-6 0-10 4-10 10v25c0 6 4 10 10 10h19v-25h23v25h10c8 0 15-7 15-15s-7-15-15-15c-6 0-11 4-14 9l-21-5c1-2 1-4 1-6 0-7-5-13-13-13h-5Z"/>
    <circle cx="124" cy="102" r="7" fill="#0E6F6B"/>
    <circle cx="176" cy="122" r="7" fill="#1D3557"/>
    <circle cx="154" cy="182" r="7" fill="#E2A33A"/>
  </g>
  <g fill="#111827">
    <text x="302" y="126" font-family="Inter, ui-sans-serif, system-ui, -apple-system, BlinkMacSystemFont, Segoe UI, sans-serif" font-size="76" font-weight="800" letter-spacing="0">Noggin</text>
    <text x="307" y="170" font-family="Inter, ui-sans-serif, system-ui, -apple-system, BlinkMacSystemFont, Segoe UI, sans-serif" font-size="22" font-weight="600" fill="#526070" letter-spacing="0">LLM brain workers for agents, teams, and tools</text>
  </g>
</svg>
